<svg width="38" height="36" viewBox="0 0 38 36" fill="none" xmlns="http://www.w3.org/2000/svg">
<mask id="path-1-inside-1_6_3778" fill="white">
<path d="M0.577393 21.0796C1.33015 24.0273 2.79827 26.7439 4.8517 28.9888C6.90513 31.2336 9.48049 32.9374 12.3497 33.9491C15.2188 34.9609 18.2933 35.2495 21.3006 34.7893C24.3079 34.3291 27.1553 33.1343 29.5906 31.3108C32.0259 29.4873 33.9739 27.0913 35.2621 24.3352C36.5502 21.579 37.1387 18.5476 36.9755 15.5097C36.8123 12.4717 35.9024 9.5209 34.3264 6.91859C32.7503 4.31629 30.5568 2.14283 27.9402 0.590741L18.5022 16.5022L0.577393 21.0796Z"/>
</mask>
<path d="M0.577393 21.0796C1.33015 24.0273 2.79827 26.7439 4.8517 28.9888C6.90513 31.2336 9.48049 32.9374 12.3497 33.9491C15.2188 34.9609 18.2933 35.2495 21.3006 34.7893C24.3079 34.3291 27.1553 33.1343 29.5906 31.3108C32.0259 29.4873 33.9739 27.0913 35.2621 24.3352C36.5502 21.579 37.1387 18.5476 36.9755 15.5097C36.8123 12.4717 35.9024 9.5209 34.3264 6.91859C32.7503 4.31629 30.5568 2.14283 27.9402 0.590741L18.5022 16.5022L0.577393 21.0796Z" stroke="#00BA7C" stroke-width="8" mask="url(#path-1-inside-1_6_3778)"/>
</svg>
